<svg xmlns="http://www.w3.org/2000/svg" width="36" height="36" viewBox="0 0 36 36">
  <rect width="36" height="36" fill="none"/>
  <path fill="#000" opacity=".72" d="M5.4 25.8c.5-6.5 4-10.3 8.3-10.3 2.2 0 4.2 1 5.7 2.8-2.5 2-4 5.5-4.2 9.4H7.7c-1.4 0-2.4-.8-2.3-1.9z"/>
  <circle cx="13.7" cy="10.9" r="4.3" fill="#000" opacity=".72"/>
  <circle cx="22.5" cy="9.9" r="5.1" fill="#000"/>
  <path fill="#000" d="M13.2 29c.5-7.6 4.4-12.1 9.3-12.1 4.8 0 8.8 4.5 9.3 12.1.1 1.4-.9 2.5-2.5 2.5H15.7c-1.6 0-2.6-1.1-2.5-2.5z"/>
</svg>
